<svg viewBox="0 0 17 25" xmlns="http://www.w3.org/2000/svg">
    <path fill-rule="evenodd" clip-rule="evenodd" d="M16 22.2904L14.854 21.1504C14.658 20.9504 14.342 20.9504 14.147 21.1504L12.5 22.7904L10.854 21.1504C10.756 21.0504 10.628 21.0004 10.5 21.0004C10.372 21.0004 10.244 21.0504 10.147 21.1504L8.5 22.7904L6.854 21.1504C6.658 20.9504 6.342 20.9504 6.147 21.1504L4.5 22.7904L2.854 21.1504C2.658 20.9504 2.342 20.9504 2.147 21.1504L1 22.2904V1.71038L2.147 2.86038C2.342 3.05038 2.658 3.05038 2.854 2.86038L4.5 1.21038L6.147 2.86038C6.342 3.05038 6.658 3.05038 6.854 2.86038L8.5 1.21038L10.147 2.86038C10.342 3.05038 10.658 3.05038 10.854 2.86038L12.5 1.21038L14.147 2.86038C14.342 3.05038 14.658 3.05038 14.854 2.86038L16 1.71038V22.2904ZM16.692 0.0403783C16.504 -0.0396217 16.29 0.000378299 16.147 0.150378L14.5 1.79038L12.854 0.150378C12.658 -0.0496217 12.342 -0.0496217 12.147 0.150378L10.5 1.79038L8.854 0.150378C8.658 -0.0496217 8.342 -0.0496217 8.147 0.150378L6.5 1.79038L4.854 0.150378C4.658 -0.0496217 4.342 -0.0496217 4.147 0.150378L2.5 1.79038L0.854 0.150378C0.711 0.0103783 0.497 -0.0396217 0.309 0.0403783C0.122 0.120378 0 0.300378 0 0.500378V23.5004C0 23.7004 0.122 23.8904 0.309 23.9604C0.496 24.0404 0.71 24.0004 0.854 23.8604L2.5 22.2104L4.147 23.8604C4.342 24.0504 4.658 24.0504 4.854 23.8604L6.5 22.2104L8.147 23.8604C8.342 24.0504 8.658 24.0504 8.854 23.8604L10.5 22.2104L12.147 23.8604C12.342 24.0504 12.658 24.0504 12.854 23.8604L14.5 22.2104L16.147 23.8604C16.242 23.9504 16.37 24.0004 16.5 24.0004C16.565 24.0004 16.63 23.9904 16.692 23.9604C16.879 23.8904 17 23.7004 17 23.5004V0.500378C17 0.300378 16.879 0.120378 16.692 0.0403783ZM9.5 6.00038H3.5C3.224 6.00038 3 6.23038 3 6.50038C3 6.78038 3.224 7.00038 3.5 7.00038H9.5C9.777 7.00038 10 6.78038 10 6.50038C10 6.23038 9.777 6.00038 9.5 6.00038ZM3.5 10.0004H7.5C7.777 10.0004 8 9.78038 8 9.50038C8 9.23038 7.777 9.00038 7.5 9.00038H3.5C3.224 9.00038 3 9.23038 3 9.50038C3 9.78038 3.224 10.0004 3.5 10.0004ZM8.5 12.0004H3.5C3.224 12.0004 3 12.2304 3 12.5004C3 12.7804 3.224 13.0004 3.5 13.0004H8.5C8.777 13.0004 9 12.7804 9 12.5004C9 12.2304 8.777 12.0004 8.5 12.0004ZM6.5 15.0004H3.5C3.224 15.0004 3 15.2304 3 15.5004C3 15.7804 3.224 16.0004 3.5 16.0004H6.5C6.777 16.0004 7 15.7804 7 15.5004C7 15.2304 6.777 15.0004 6.5 15.0004ZM13.5 6.00038H12.5C12.224 6.00038 12 6.23038 12 6.50038C12 6.78038 12.224 7.00038 12.5 7.00038H13.5C13.777 7.00038 14 6.78038 14 6.50038C14 6.23038 13.777 6.00038 13.5 6.00038ZM13.5 9.00038H12.5C12.224 9.00038 12 9.23038 12 9.50038C12 9.78038 12.224 10.0004 12.5 10.0004H13.5C13.777 10.0004 14 9.78038 14 9.50038C14 9.23038 13.777 9.00038 13.5 9.00038ZM13.5 12.0004H12.5C12.224 12.0004 12 12.2304 12 12.5004C12 12.7804 12.224 13.0004 12.5 13.0004H13.5C13.777 13.0004 14 12.7804 14 12.5004C14 12.2304 13.777 12.0004 13.5 12.0004ZM13.5 15.0004H12.5C12.224 15.0004 12 15.2304 12 15.5004C12 15.7804 12.224 16.0004 12.5 16.0004H13.5C13.777 16.0004 14 15.7804 14 15.5004C14 15.2304 13.777 15.0004 13.5 15.0004Z" />
</svg>
