<svg viewBox="0 0 11 20" xmlns="http://www.w3.org/2000/svg">
    <path fill-rule="evenodd" clip-rule="evenodd" d="M0.169922 5.28377C0.169922 2.55385 2.38466 0.34082 5.11802 0.34082C7.85078 0.34082 10.0661 2.55758 10.0661 5.28377V14.6405C10.0661 17.3704 7.85138 19.5834 5.11802 19.5834C2.38526 19.5834 0.169922 17.3667 0.169922 14.6405V5.28377ZM1.26951 10.8682V14.6405C1.26951 16.7605 2.99371 18.4838 5.11803 18.4838C7.24414 18.4838 8.96655 16.7631 8.96655 14.6405V10.8682H1.26951ZM1.26951 9.60577H8.96655V5.28377C8.96655 3.1637 7.24235 1.44039 5.11803 1.44039C2.99192 1.44039 1.26951 3.16116 1.26951 5.28377V9.60577Z"/>
</svg>
