<svg viewBox="0 0 24 24" xmlns="http://www.w3.org/2000/svg">
    <path fill-rule="evenodd" clip-rule="evenodd" d="M5.815 13.54L2.146 15.01L3.434 12.75C3.556 12.54 3.505 12.26 3.313 12.11C1.843 10.94 1 9.23 1 7.44C1 3.89 4.589 1 9 1C13.411 1 17 3.89 17 7.44H18C18 3.34 13.963 0 9 0C4.038 0 0 3.34 0 7.44C0 9.4 0.855 11.26 2.36 12.61L0.566 15.75C0.461 15.94 0.484 16.17 0.623 16.33C0.72 16.44 0.859 16.5 1 16.5C1.063 16.5 1.126 16.49 1.186 16.47L6.025 14.53C6.46 14.65 6.912 14.75 7.373 14.81L7.508 13.82C7.04 13.76 6.582 13.66 6.146 13.52C6.037 13.49 5.92 13.5 5.815 13.54Z"/>
    <path fill-rule="evenodd" clip-rule="evenodd" d="M19.176 21.03C19.119 21.01 19.06 21 19 21C18.931 21 18.861 21.02 18.797 21.04C17.952 21.42 17.066 21.61 16.161 21.61H16.16C12.821 21.61 10 19.04 10 16C10 13.02 12.977 10.5 16.5 10.5C20.024 10.5 23 13.02 23 16C23 17.43 22.39 18.65 21.188 19.61C21.004 19.76 20.947 20.01 21.053 20.23L21.984 22.09L19.176 21.03ZM22.123 20.13C23.353 19.02 24 17.6 24 16C24 12.48 20.566 9.5 16.5 9.5C12.435 9.5 9 12.48 9 16C9 19.58 12.279 22.61 16.16 22.61H16.161C17.138 22.61 18.097 22.42 19.012 22.04L22.824 23.47C22.882 23.49 22.941 23.5 23 23.5C23.139 23.5 23.275 23.44 23.372 23.34C23.51 23.18 23.539 22.96 23.447 22.78L22.123 20.13Z"/>
</svg>
