<svg viewBox="0 0 18 24" xmlns="http://www.w3.org/2000/svg">
<path fill-rule="evenodd" clip-rule="evenodd" d="M17.853 6.15C17.899 6.19 17.936 6.25 17.961 6.31C17.987 6.37 18 6.43 18 6.5V23.5C18 23.78 17.777 24 17.5 24H0.5C0.224 24 0 23.78 0 23.5V0.5C0 0.23 0.224 0 0.5 0H11.5C11.567 0 11.632 0.02 11.693 0.04C11.754 0.07 11.808 0.1 11.854 0.15L17.853 6.15ZM1 23V1H11V6.5C11 6.78 11.224 7 11.5 7H17V23H1ZM12 1.71L16.293 6H12V1.71ZM7 15.5C7 15.2239 7.22386 15 7.5 15H13.5C13.7761 15 14 15.2239 14 15.5C14 15.7761 13.7761 16 13.5 16H7.5C7.22386 16 7 15.7761 7 15.5ZM7.5 12C7.22386 12 7 12.2239 7 12.5C7 12.7761 7.22386 13 7.5 13H13.5C13.7761 13 14 12.7761 14 12.5C14 12.2239 13.7761 12 13.5 12H7.5ZM7 9.5C7 9.22386 7.22386 9 7.5 9H13.5C13.7761 9 14 9.22386 14 9.5C14 9.77614 13.7761 10 13.5 10H7.5C7.22386 10 7 9.77614 7 9.5ZM4.5 15C4.22386 15 4 15.2239 4 15.5C4 15.7761 4.22386 16 4.5 16H5.5C5.77614 16 6 15.7761 6 15.5C6 15.2239 5.77614 15 5.5 15H4.5ZM7 18.5C7 18.2239 7.22386 18 7.5 18H13.5C13.7761 18 14 18.2239 14 18.5C14 18.7761 13.7761 19 13.5 19H7.5C7.22386 19 7 18.7761 7 18.5ZM4.5 18C4.22386 18 4 18.2239 4 18.5C4 18.7761 4.22386 19 4.5 19H5.5C5.77614 19 6 18.7761 6 18.5C6 18.2239 5.77614 18 5.5 18H4.5ZM4 12.5C4 12.2239 4.22386 12 4.5 12H5.5C5.77614 12 6 12.2239 6 12.5C6 12.7761 5.77614 13 5.5 13H4.5C4.22386 13 4 12.7761 4 12.5ZM4.5 9C4.22386 9 4 9.22386 4 9.5C4 9.77614 4.22386 10 4.5 10H5.5C5.77614 10 6 9.77614 6 9.5C6 9.22386 5.77614 9 5.5 9H4.5Z" />
</svg>
