<svg viewBox="0 0 25 20" xmlns="http://www.w3.org/2000/svg">
    <path fill-rule="evenodd" clip-rule="evenodd" d="M23.502 11.3015H16.002C15.812 11.3015 15.642 11.3884 15.552 11.5361L14.628 13.1437L12.981 8.13842C12.924 7.96463 12.752 7.84297 12.546 7.82559C12.338 7.80821 12.145 7.9038 12.053 8.06022L9.939 11.736L8.416 9.75471C8.326 9.63305 8.176 9.56353 8.014 9.56353C7.863 9.55484 7.697 9.62436 7.6 9.73733L6.25 11.3015H0.5C0.224 11.3015 0 11.4926 0 11.736C0 11.9706 0.224 12.1704 0.5 12.1704H6.5C6.657 12.1704 6.806 12.1009 6.901 11.9966L7.976 10.7453L9.584 12.8396C9.683 12.9699 9.86 13.0481 10.031 13.0307C10.209 13.022 10.367 12.9351 10.447 12.7961L12.372 9.45057L14.02 14.4558C14.076 14.6296 14.248 14.7513 14.454 14.7687C14.47 14.7687 14.485 14.7774 14.5 14.7774C14.689 14.7774 14.863 14.6818 14.947 14.534L16.312 12.1704H23.502C23.772 12.1704 24.002 11.9706 24.002 11.736C24.002 11.4926 23.772 11.3015 23.502 11.3015ZM2.411 10.4237C2.475 10.4237 2.538 10.4151 2.601 10.3985C2.856 10.3021 2.979 10.0501 2.874 9.82415C2.294 8.59891 2 7.38235 2 6.22662C2 2.77681 4.212 1.08232 6.405 0.934592C8.534 0.795556 10.943 2.07294 11.506 5.26206C11.543 5.4793 11.753 5.63572 12 5.63572C12.247 5.63572 12.457 5.4793 12.494 5.26206C13.068 2.02949 15.552 0.752108 17.732 0.882453C19.862 1.02149 22.002 2.56826 22.002 5.71393C22.002 6.97393 21.602 8.34691 20.802 9.80678C20.682 10.024 20.792 10.2847 21.042 10.389C21.292 10.4846 21.592 10.3985 21.712 10.1804C22.562 8.59891 23.002 7.10428 23.002 5.71393C23.002 2.03818 20.312 0.178588 17.812 0.0134835C15.652 -0.134241 13.144 0.925902 12 3.48936C10.874 0.969351 8.42 -0.0560341 6.328 0.0656217C3.676 0.248105 1 2.22067 1 6.22662C1 7.49532 1.32 8.81615 1.948 10.1544C2.028 10.3282 2.214 10.4237 2.411 10.4237ZM18.3819 13.2044C15.9119 16.0372 12.9029 18.2618 11.9789 18.9135C10.9769 18.2965 7.65687 16.1415 5.13087 13.2044C4.96487 13.0132 4.65087 12.9785 4.43087 13.1175C4.20987 13.2652 4.16487 13.5346 4.32987 13.7258C7.43287 17.332 11.5499 19.7217 11.7239 19.8172C11.8079 19.8694 11.9049 19.8955 11.9999 19.8955C12.1089 19.8955 12.2169 19.8607 12.3069 19.7999C12.4619 19.6956 16.1519 17.2016 19.1719 13.7345C19.3419 13.5433 19.3019 13.2652 19.0819 13.1262C18.8619 12.9785 18.5419 13.0132 18.3819 13.2044Z"/>
</svg>
