<svg viewBox="0 0 18 24" xmlns="http://www.w3.org/2000/svg">
    <path fill-rule="evenodd" clip-rule="evenodd" d="M1 23V1H11V6.5C11 6.78 11.224 7 11.5 7H17V23H1ZM12 1.71L16.293 6H12V1.71ZM17.961 6.31C17.936 6.25 17.899 6.19 17.853 6.15L11.854 0.15C11.808 0.1 11.754 0.07 11.693 0.04C11.632 0.02 11.567 0 11.5 0H0.5C0.224 0 0 0.23 0 0.5V23.5C0 23.78 0.224 24 0.5 24H17.5C17.777 24 18 23.78 18 23.5V6.5C18 6.43 17.987 6.37 17.961 6.31ZM14.5 19H4V16.71L7.564 13.15L10.223 14.92C10.426 15.05 10.698 15.02 10.865 14.84L14.615 10.84C14.804 10.64 14.794 10.33 14.592 10.14C14.391 9.95 14.074 9.96 13.885 10.16L10.425 13.85L7.777 12.09C7.58 11.95 7.316 11.98 7.147 12.15L4 15.29V8C4 7.73 3.777 7.5 3.5 7.5C3.224 7.5 3 7.73 3 8V19.5C3 19.78 3.224 20 3.5 20H14.5C14.777 20 15 19.78 15 19.5C15 19.23 14.777 19 14.5 19Z" />
</svg>
