<svg viewBox="0 0 17 24" xmlns="http://www.w3.org/2000/svg">
    <path fill-rule="evenodd" clip-rule="evenodd" d="M15.9154 10.94C15.6824 11.64 15.0214 12.11 14.1704 12.11C14.1684 12.11 14.1664 12.11 14.1644 12.11C13.9974 12.09 13.8504 12.2 13.7534 12.34C13.6564 12.47 13.6414 12.67 13.6974 12.83C13.9544 13.53 13.7084 14.3 13.0864 14.74C12.4764 15.17 11.6344 15.19 10.9564 14.68C10.8264 14.59 10.6504 14.58 10.4934 14.63C10.3384 14.68 10.2114 14.83 10.1644 14.99C9.94937 15.7 9.26437 16.2 8.49837 16.2C7.73337 16.2 7.04737 15.7 6.81937 14.94C6.77337 14.79 6.63237 14.68 6.47637 14.62C6.43137 14.61 6.38337 14.6 6.33537 14.6C6.21537 14.6 6.09237 14.64 5.99937 14.71C5.40337 15.16 4.52037 15.17 3.91137 14.74C3.28837 14.3 3.04237 13.53 3.31537 12.78C3.37337 12.63 3.29537 12.46 3.20137 12.32C3.10837 12.19 2.89837 12.11 2.73437 12.11C1.97937 12.11 1.31537 11.64 1.08237 10.94C0.845366 10.23 1.11337 9.47 1.79237 9.01C1.93037 8.92 1.99237 8.75 1.99137 8.58C1.99137 8.42 1.88737 8.25 1.74837 8.16C1.11337 7.73 0.845366 6.97 1.08237 6.26C1.31437 5.56 1.97537 5.09 2.82137 5.09C2.82337 5.09 2.82537 5.09 2.82837 5.09C2.99037 5.11 3.14437 5 3.24237 4.86C3.34037 4.73 3.35637 4.53 3.29937 4.37C3.04237 3.67 3.28837 2.9 3.91137 2.46C4.51937 2.03 5.36337 2.01 6.04037 2.51C6.17137 2.61 6.34737 2.62 6.50337 2.57C6.65837 2.51 6.78537 2.37 6.83237 2.21C7.04737 1.5 7.73337 1 8.49837 1C9.26437 1 9.94937 1.5 10.1784 2.26C10.2254 2.41 10.3654 2.52 10.5214 2.57C10.6774 2.63 10.8674 2.58 10.9984 2.48C11.5934 2.04 12.4774 2.03 13.0854 2.46C13.7084 2.9 13.9544 3.67 13.6814 4.42C13.6244 4.57 13.7024 4.74 13.7954 4.88C13.8894 5.01 14.0984 5.09 14.2624 5.09C15.0184 5.09 15.6824 5.56 15.9144 6.25C16.1514 6.97 15.8834 7.73 15.2084 8.18C15.0684 8.28 15.0054 8.44 15.0054 8.61C15.0054 8.78 15.1094 8.95 15.2484 9.04C15.8834 9.47 16.1514 10.23 15.9154 10.94ZM16.8634 5.94C16.5494 5 15.7424 4.32 14.7764 4.14C14.8904 3.19 14.4774 2.22 13.6644 1.64C12.8714 1.08 11.8064 0.97 10.8944 1.39C10.4204 0.55 9.50237 0 8.49837 0C7.50537 0 6.59737 0.54 6.10937 1.39C5.22337 0.98 4.13037 1.07 3.33237 1.64C2.52837 2.21 2.11437 3.17 2.22837 4.13C1.25837 4.31 0.448366 4.99 0.133366 5.94C-0.174634 6.87 0.065366 7.88 0.738366 8.59C0.070366 9.3 -0.178634 10.32 0.133366 11.26C0.448366 12.2 1.25437 12.88 2.22137 13.06C2.10637 14.01 2.52037 14.98 3.33237 15.56C4.12537 16.12 5.18937 16.23 6.10237 15.811C6.57637 16.65 7.49437 17.2 8.49837 17.2C9.49137 17.2 10.4004 16.66 10.8874 15.811C11.7734 16.22 12.8654 16.12 13.6644 15.56C14.4684 14.99 14.8824 14.03 14.7684 13.06C15.7384 12.89 16.5484 12.21 16.8634 11.26C17.1724 10.33 16.9324 9.32 16.2594 8.6C16.9264 7.9 17.1754 6.88 16.8634 5.94ZM11.9984 22.29L8.85237 19.15C8.65637 18.95 8.34037 18.95 8.14537 19.15L4.99837 22.29V17H3.99837V23.5C3.99837 23.7 4.12037 23.89 4.30737 23.96C4.49437 24.04 4.70937 24 4.85237 23.86L8.49837 20.21L12.1454 23.86C12.2404 23.95 12.3684 24 12.4984 24C12.5634 24 12.6284 23.99 12.6904 23.96C12.8774 23.89 12.9984 23.7 12.9984 23.5V17H11.9984V22.29ZM10.1864 8.61C10.0284 8.74 9.96237 8.94 10.0174 9.14L10.6604 11.39L8.76337 10.2C8.68237 10.15 8.59037 10.13 8.49837 10.13C8.40637 10.13 8.31437 10.15 8.23337 10.2L6.33737 11.39L6.97937 9.14C7.03437 8.94 6.96837 8.74 6.81137 8.61L5.42437 7.5H6.99837C7.18837 7.5 7.36037 7.39 7.44537 7.23L8.49837 5.12L9.55137 7.23C9.63637 7.39 9.80937 7.5 9.99837 7.5H11.5734L10.1864 8.61ZM12.9984 6.5H10.3074L8.94537 3.78C8.77637 3.44 8.22137 3.44 8.05137 3.78L6.68937 6.5H3.99837C3.78637 6.5 3.59737 6.64 3.52737 6.84C3.45637 7.04 3.52037 7.26 3.68637 7.39L5.92637 9.18L5.01737 12.36C4.96137 12.56 5.03237 12.78 5.19737 12.9C5.36337 13.03 5.58737 13.03 5.76337 12.93L8.49837 11.22L11.2334 12.93C11.3154 12.98 11.4064 13 11.4984 13C11.6044 13 11.7104 12.97 11.7994 12.9C11.9644 12.78 12.0364 12.56 11.9794 12.36L11.0714 9.18L13.3114 7.39C13.4764 7.26 13.5404 7.04 13.4704 6.84C13.4004 6.64 13.2114 6.5 12.9984 6.5Z" />
</svg>
