<svg viewBox="0 0 24 24" xmlns="http://www.w3.org/2000/svg">
    <path fill-rule="evenodd" clip-rule="evenodd" d="M22.1355 4.45386L19.7937 2.11203C18.9544 1.27272 17.5762 1.28508 16.7217 2.13958L2.41645 16.4449C1.56195 17.2994 1.54959 18.6775 2.3889 19.5168L4.73073 21.8586C5.57004 22.698 6.94815 22.6856 7.80266 21.8311L22.108 7.52579C22.9625 6.67129 22.9748 5.29318 22.1355 4.45386ZM7.10013 21.1285C6.63997 21.5887 5.89798 21.5953 5.44601 21.1434L3.10418 18.8015C2.65221 18.3496 2.65886 17.6076 3.11901 17.1474L3.95349 16.313L5.94405 18.3035C6.13795 18.4974 6.45554 18.4946 6.65295 18.2972C6.85037 18.0997 6.85321 17.7821 6.65931 17.5882L4.66875 15.5977L6.33771 13.9287L8.32826 15.9193C8.52217 16.1132 8.83975 16.1103 9.03717 15.9129C9.23458 15.7155 9.23743 15.3979 9.04353 15.204L7.05297 13.2135L8.72192 11.5445L10.7125 13.5351C10.9064 13.729 11.224 13.7261 11.4214 13.5287C11.6188 13.3313 11.6216 13.0137 11.4277 12.8198L9.43719 10.8293L11.1061 9.16031L13.0967 11.1509C13.2906 11.3448 13.6079 11.3422 13.8056 11.1445C14.0033 10.9469 14.0059 10.6295 13.812 10.4356L11.8214 8.44504L13.4904 6.77609L15.4809 8.76665C15.6748 8.96055 15.9922 8.95794 16.1898 8.76029C16.3875 8.56264 16.3901 8.24528 16.1962 8.05138L14.2056 6.06083L15.8746 4.39187L17.8651 6.38243C18.059 6.57633 18.3764 6.57372 18.574 6.37607C18.7717 6.17842 18.7743 5.86107 18.5804 5.66717L16.5898 3.67661L17.4243 2.84213C17.8845 2.38198 18.6265 2.37533 19.0784 2.8273L21.4203 5.16913C21.8722 5.6211 21.8656 6.36309 21.4054 6.82324L7.10013 21.1285Z"/>
</svg>
