<svg viewBox="0 0 22 26" xmlns="http://www.w3.org/2000/svg">
    <path fill-rule="evenodd" clip-rule="evenodd" d="M18.2748 0.80554C18.2748 3.72283 15.9135 6.08979 13.0026 6.08979C12.6047 6.08979 12.2839 5.76995 12.2839 5.36921C12.2839 2.45295 14.6472 0.0849609 17.5561 0.0849609C17.9468 0.0849609 18.2748 0.413805 18.2748 0.80554ZM13.8061 4.56935C14.1204 3.09366 15.2778 1.93148 16.7484 1.61545C16.4333 3.09011 15.2746 4.25301 13.8061 4.56935ZM8.95684 3.81537C10.4696 3.81537 11.6984 5.04714 11.6984 6.56425V7.55756C11.7863 7.50837 11.854 7.47247 11.9368 7.43113C12.6916 7.05452 13.6008 6.85781 15.0275 6.85781C18.5553 6.85781 21.3091 10.3093 21.3091 14.6774C21.3091 19.3592 17.8575 25.5395 14.5198 25.5395C12.9048 25.5395 12.2137 25.3122 11.551 24.7237C11.4915 24.6698 11.4697 24.6507 11.4433 24.6299C11.3435 24.5513 11.2489 24.5254 10.9797 24.5254C10.7119 24.5254 10.6172 24.5512 10.5173 24.6294C10.4906 24.6503 10.4688 24.6693 10.4068 24.7252C9.74571 25.3122 9.05466 25.5395 7.43967 25.5395C4.10214 25.5395 0.652344 19.3598 0.652344 14.6774C0.652344 10.3075 3.40347 6.85781 6.93395 6.85781C8.3592 6.85781 9.26762 7.05444 10.0231 7.4311C10.1044 7.47167 10.1709 7.50683 10.2611 7.55752V6.56425C10.2611 5.84153 9.67681 5.25653 8.95684 5.25653H6.93395C6.53605 5.25653 6.21529 4.93669 6.21529 4.53595C6.21529 4.1425 6.53887 3.81537 6.93395 3.81537H8.95684ZM12.5109 23.6471C12.8738 23.9791 13.2536 24.0984 14.5198 24.0984C16.8803 24.0984 19.8718 18.6863 19.8718 14.6774C19.8718 11.0934 17.7279 8.29898 15.0275 8.29898C13.7886 8.29898 13.0924 8.45413 12.5008 8.7648C12.4249 8.80467 12.3698 8.83572 12.2409 8.91005L12.1926 8.93754C11.7187 9.20702 11.4279 9.31313 10.9797 9.31313C10.5313 9.31313 10.2394 9.20654 9.76742 8.93741L9.71863 8.90955C9.58899 8.83492 9.53513 8.80463 9.4593 8.76483C8.86694 8.45397 8.17191 8.29898 6.93393 8.29898C4.23154 8.29898 2.08965 11.0921 2.08965 14.6774C2.08965 18.6868 5.0794 24.0984 7.43966 24.0984C8.70646 24.0984 9.08534 23.9793 9.45104 23.6448C9.90851 23.2396 10.2691 23.0842 10.9797 23.0842C11.6903 23.0842 12.0509 23.2396 12.5109 23.6471Z"/>
</svg>
